<?xml version="1.0" encoding="utf-8"?>
<!-- Generator: Adobe Illustrator 22.1.0, SVG Export Plug-In . SVG Version: 6.00 Build 0)  -->
<svg version="1.1" id="Layer_2_1_" xmlns="http://www.w3.org/2000/svg" xmlns:xlink="http://www.w3.org/1999/xlink" x="0px" y="0px"
	 viewBox="0 0 120 120" style="enable-background:new 0 0 120 120;" xml:space="preserve">
<g>
	<path d="M45.4,82.9V42.8l-29.3-16v60.4l2.6-0.4l0.3,1.8l-1,0.2l27.3,14.9V84.8l-2.6,0.4l-0.3-1.8L45.4,82.9z M74,40.6h-1.9v-1.3
		L47.2,43v61.1l54.1-8l-2.7-1.5l0.9-1.6l3.3,1.8l-0.7,1.2l1.2-0.2v-61L74,39.1V40.6z M72.1,37.5v-0.6H74v0.3l27.4-4
		c-9.1-5-18.2-9.9-27.4-14.9v0.1h-1.9v-0.6l-54.1,8l28.5,15.5L72.1,37.5z M46.1,106.2L14.2,88.8V24.5l59-8.8
		c10.7,5.8,21.3,11.6,32,17.4v64.4L46.1,106.2z"/>
	<polygon points="74,23.9 72.1,23.9 72.1,20.2 74,20.2 	"/>
	<polygon points="74,29.5 72.1,29.5 72.1,25.8 74,25.8 	"/>
	<polygon points="74,35.1 72.1,35.1 72.1,31.3 74,31.3 	"/>
	<polygon points="74,46.2 72.1,46.2 72.1,42.5 74,42.5 	"/>
	<polygon points="74,51.8 72.1,51.8 72.1,48.1 74,48.1 	"/>
	<polygon points="74,57.3 72.1,57.3 72.1,53.6 74,53.6 	"/>
	<polygon points="74,62.9 72.1,62.9 72.1,59.2 74,59.2 	"/>
	<polygon points="74,68.5 72.1,68.5 72.1,64.8 74,64.8 	"/>
	<polygon points="74,74.1 72.1,74.1 72.1,70.3 74,70.3 	"/>
	<polygon points="78.3,81.5 77.4,83.2 74.2,81.4 75.1,79.7 	"/>
	<polygon points="83.2,84.2 82.3,85.8 79.1,84 79.9,82.4 	"/>
	<polygon points="88.1,86.9 87.2,88.5 84,86.7 84.8,85.1 	"/>
	<polygon points="93,89.5 92.1,91.1 88.8,89.4 89.7,87.7 	"/>
	<polygon points="97.9,92.2 97,93.8 93.7,92 94.6,90.4 	"/>
	<polygon points="24.2,86 24.4,87.8 20.8,88.4 20.5,86.6 	"/>
	<polygon points="29.7,85.2 30,87 26.3,87.6 26,85.7 	"/>
	<polygon points="35.2,84.4 35.5,86.2 31.8,86.8 31.5,84.9 	"/>
	<polygon points="40.7,83.6 41,85.4 37.3,85.9 37,84.1 	"/>
	<polygon points="51.7,81.9 52,83.8 48.3,84.3 48,82.5 	"/>
	<polygon points="57.2,81.1 57.5,83 53.8,83.5 53.6,81.7 	"/>
	<polygon points="62.7,80.3 63,82.1 59.3,82.7 59.1,80.9 	"/>
	<polygon points="68.3,79.5 68.5,81.3 64.8,81.9 64.6,80 	"/>
	<polygon points="74.2,79.3 73.4,80.9 72.9,80.7 70.4,81.1 70.1,79.2 72.1,78.9 72.1,75.9 74,75.9 74,79.2 	"/>
</g>
</svg>
