<?xml version="1.0" encoding="utf-8"?>
<!-- Generator: Adobe Illustrator 22.1.0, SVG Export Plug-In . SVG Version: 6.00 Build 0)  -->
<svg version="1.1" id="Layer_1" xmlns="http://www.w3.org/2000/svg" xmlns:xlink="http://www.w3.org/1999/xlink" x="0px" y="0px"
	 viewBox="0 0 120 120" style="enable-background:new 0 0 120 120;" xml:space="preserve">
<g>
	<path d="M64.9,14.3l-0.5-1L18.1,79.8l24.7,25.7l0.2,0.2l58-9.1l0.8-0.1L64.9,14.3z M99.7,95.6l-55.6,8.7l20.4-87.8l0.8,1.8
		l-0.8,0.2l0.6,2.6l1.2-0.3l-0.1-0.4l33.7,74.9L99.7,95.6L99.7,95.6z M20.1,79.2l42.8-61.6l-20,86.2L20.2,80.2h0.1L20.1,79.2z"/>
	<rect x="83" y="76.7" transform="matrix(0.7212 -0.6928 0.6928 0.7212 -30.6424 79.6756)" width="1.3" height="2.5"/>
	<rect x="93.4" y="87.5" transform="matrix(0.721 -0.6929 0.6929 0.721 -35.2585 89.9023)" width="1.3" height="2.5"/>
	<rect x="96.9" y="91.1" transform="matrix(0.7212 -0.6928 0.6928 0.7212 -36.764 93.2954)" width="1.3" height="2.5"/>
	<rect x="89.9" y="83.9" transform="matrix(0.7208 -0.6931 0.6931 0.7208 -33.7447 86.523)" width="1.3" height="2.5"/>
	<rect x="86.4" y="80.3" transform="matrix(0.7212 -0.6928 0.6928 0.7212 -32.2239 83.0579)" width="1.3" height="2.5"/>
	<rect x="79.5" y="73.1" transform="matrix(0.7208 -0.6931 0.6931 0.7208 -29.1356 76.3096)" width="1.3" height="2.5"/>
	<rect x="70.6" y="70.8" transform="matrix(0.9879 -0.1553 0.1553 0.9879 -10.2252 12.0172)" width="2.4" height="1.3"/>
	<rect x="65.8" y="71.6" transform="matrix(0.9878 -0.1556 0.1556 0.9878 -10.4258 11.306)" width="2.4" height="1.3"/>
	<rect x="56.2" y="73.1" transform="matrix(0.9879 -0.1553 0.1553 0.9879 -10.7568 9.8096)" width="2.4" height="1.3"/>
	<rect x="51.4" y="73.8" transform="matrix(0.9879 -0.1553 0.1553 0.9879 -10.9239 9.0713)" width="2.4" height="1.3"/>
	<rect x="61" y="72.3" transform="matrix(0.9878 -0.1556 0.1556 0.9878 -10.5933 10.5664)" width="2.4" height="1.3"/>
	<rect x="27.4" y="77.6" transform="matrix(0.9879 -0.1553 0.1553 0.9879 -11.8046 5.3909)" width="2.4" height="1.3"/>
	<rect x="32.2" y="76.9" transform="matrix(0.9879 -0.1553 0.1553 0.9879 -11.6375 6.1291)" width="2.4" height="1.3"/>
	<rect x="22.6" y="78.4" transform="matrix(0.9879 -0.1553 0.1553 0.9879 -11.9868 4.6563)" width="2.4" height="1.3"/>
	<rect x="41.8" y="75.4" transform="matrix(0.9879 -0.1553 0.1553 0.9879 -11.2882 7.602)" width="2.4" height="1.3"/>
	<rect x="46.6" y="74.6" transform="matrix(0.9879 -0.1553 0.1553 0.9879 -11.1059 8.3367)" width="2.4" height="1.3"/>
	<rect x="37" y="76.1" transform="matrix(0.9878 -0.1556 0.1556 0.9878 -11.4767 6.8789)" width="2.4" height="1.3"/>
	<rect x="72.7" y="54.1" transform="matrix(0.9766 -0.215 0.215 0.9766 -10.1925 17.065)" width="1.3" height="2.6"/>
	<rect x="65.9" y="23.4" transform="matrix(0.9766 -0.2151 0.2151 0.9766 -3.7542 14.8926)" width="1.3" height="2.6"/>
	<rect x="67" y="28.5" transform="matrix(0.9767 -0.2148 0.2148 0.9767 -4.8221 15.2259)" width="1.3" height="2.6"/>
	<rect x="71.5" y="49" transform="matrix(0.9765 -0.2157 0.2157 0.9765 -9.1512 16.7476)" width="1.3" height="2.6"/>
	<rect x="74.9" y="64.3" transform="matrix(0.9764 -0.2159 0.2159 0.9764 -12.3806 17.8564)" width="1.3" height="2.6"/>
	<rect x="73.8" y="59.2" transform="matrix(0.9766 -0.2152 0.2152 0.9766 -11.2734 17.4377)" width="1.3" height="2.6"/>
	<rect x="69.3" y="38.7" transform="matrix(0.9767 -0.2146 0.2146 0.9767 -6.9527 15.9402)" width="1.3" height="2.6"/>
	<rect x="70.4" y="43.9" transform="matrix(0.9767 -0.2147 0.2147 0.9767 -8.0462 16.3096)" width="1.3" height="2.6"/>
	<rect x="68.1" y="33.6" transform="matrix(0.9766 -0.215 0.215 0.9766 -5.8973 15.5961)" width="1.3" height="2.6"/>
	<polygon points="77,69.3 75.8,69.6 75.9,70.2 75.3,70.3 75.5,71.5 76.4,71.4 77.1,72 78,71.2 77.2,70.4 	"/>
</g>
</svg>
