<?xml version="1.0" encoding="utf-8"?>
<!-- Generator: Adobe Illustrator 22.1.0, SVG Export Plug-In . SVG Version: 6.00 Build 0)  -->
<svg version="1.1" id="Layer_1" xmlns="http://www.w3.org/2000/svg" xmlns:xlink="http://www.w3.org/1999/xlink" x="0px" y="0px"
	 viewBox="0 0 120 120" style="enable-background:new 0 0 120 120;" xml:space="preserve">
<g>
	<path d="M99.4,87.7l-0.5-1.4L61,13.9L23.2,86.1l-0.6,1.6c-0.2,0.6-0.2,1.2-0.2,1.8c0,8.8,17,15.6,38.6,15.6
		c21.7,0,38.6-6.9,38.6-15.6C99.6,88.9,99.5,88.3,99.4,87.7z M61,103.5c-20,0-36.8-6.4-37-13.9l0.7-2.9l0.7-1.4l0.2,0.1
		c0.6-0.7,1.4-1.5,2.3-2.1l-0.8-1.1L61,17.4l33.9,64.9l-0.8,1.1c0.9,0.7,1.7,1.4,2.3,2.1l0.2-0.1l0.7,1.4l0.7,2.9
		C97.8,97.1,81,103.5,61,103.5z"/>
	<path d="M56,74l0.1,1.6c1.1-0.1,2.2-0.1,3.3-0.1v-1.6C58.2,73.9,57.1,73.9,56,74z"/>
	<path d="M42.6,75.7l0.3,1.6c1-0.2,2.1-0.4,3.2-0.6l-0.3-1.6C44.8,75.3,43.7,75.5,42.6,75.7z"/>
	<path d="M49.3,74.6l0.2,1.6c1.1-0.1,2.2-0.3,3.3-0.4l-0.1-1.6C51.5,74.3,50.4,74.5,49.3,74.6z"/>
	<path d="M29.8,80.2l0.8,1.4c0.9-0.5,1.9-1,2.9-1.4l-0.6-1.5C31.8,79.2,30.8,79.7,29.8,80.2z"/>
	<path d="M36.1,77.5l0.5,1.5c1-0.3,2.1-0.7,3.1-1l-0.4-1.5C38.2,76.8,37.1,77.2,36.1,77.5z"/>
	<path d="M82.3,78.1c1.1,0.3,2.1,0.6,3.1,1l0.5-1.5c-1-0.4-2.1-0.7-3.2-1L82.3,78.1z"/>
	<path d="M75.8,76.7c1.1,0.2,2.2,0.4,3.2,0.6l0.3-1.6c-1.1-0.2-2.2-0.4-3.3-0.6L75.8,76.7z"/>
	<path d="M88.5,80.2c1,0.4,2,0.9,2.9,1.4l0.8-1.4c-0.9-0.5-2-1-3.1-1.5L88.5,80.2z"/>
	<path d="M69.3,75.9c1.1,0.1,2.2,0.2,3.3,0.4l0.2-1.6c-1.1-0.1-2.2-0.3-3.3-0.4L69.3,75.9z"/>
	<path d="M62.7,75.5c1.1,0,2.2,0.1,3.3,0.1l0.1-1.6c-1.1-0.1-2.3-0.1-3.4-0.1L62.7,75.5z"/>
</g>
</svg>
