<?xml version="1.0" encoding="utf-8"?>
<!-- Generator: Adobe Illustrator 22.1.0, SVG Export Plug-In . SVG Version: 6.00 Build 0)  -->
<svg version="1.1" id="Layer_1" xmlns="http://www.w3.org/2000/svg" xmlns:xlink="http://www.w3.org/1999/xlink" x="0px" y="0px"
	 viewBox="0 0 120 120" style="enable-background:new 0 0 120 120;" xml:space="preserve">
<style type="text/css">
	.st0{fill:none;}
</style>
<g>
	<path class="st0" d="M38.5,29.8v3c0,0.4-0.2,0.6-0.6,0.6c-0.4,0-0.6-0.2-0.6-0.6v-3c0-0.2,0.1-0.4,0.4-0.5l-11.6-1.8v65.7l0.1-0.2
		c0.2-0.2,0.6-0.4,0.8-0.1c0.1,0.1,0.2,0.4,0.2,0.5s0,0.2-0.1,0.4l-1,1.2l31.6,9.5v-72l-19.5-3C38.4,29.4,38.5,29.5,38.5,29.8z
		 M30.8,88.8L29,91.2c-0.1,0.1-0.2,0.2-0.5,0.2c-0.1,0-0.2,0-0.4-0.1c-0.1-0.1-0.2-0.4-0.2-0.5s0-0.2,0.1-0.4l1.8-2.4
		c0.2-0.2,0.6-0.4,0.8-0.1c0.1,0.1,0.2,0.4,0.2,0.5C30.9,88.7,30.9,88.7,30.8,88.8z M34.5,84.1l-1.8,2.4c-0.1,0.1-0.2,0.2-0.5,0.2
		c-0.1,0-0.2,0-0.4-0.1c-0.1-0.1-0.2-0.4-0.2-0.5s0-0.2,0.1-0.4l1.8-2.4c0.2-0.2,0.6-0.4,0.8-0.1c0.1,0.1,0.2,0.4,0.2,0.5
		C34.7,83.8,34.7,84,34.5,84.1z M38.5,78.8c0,0.1-0.1,0.4-0.2,0.5l0,0l-1.8,2.4c-0.1,0.1-0.2,0.2-0.5,0.2c-0.1,0-0.2,0-0.4-0.1
		c-0.1-0.1-0.2-0.4-0.2-0.5s0-0.2,0.1-0.4l1.8-2.3v-0.7c0-0.4,0.2-0.6,0.6-0.6c0.4,0,0.6,0.2,0.6,0.6V78.8z M38.5,74.9
		c0,0.4-0.2,0.6-0.6,0.6c-0.4,0-0.6-0.2-0.6-0.6v-3c0-0.4,0.2-0.6,0.6-0.6c0.4,0,0.6,0.2,0.6,0.6V74.9z M38.5,68.9
		c0,0.4-0.2,0.6-0.6,0.6c-0.4,0-0.6-0.2-0.6-0.6v-3c0-0.4,0.2-0.6,0.6-0.6c0.4,0,0.6,0.2,0.6,0.6V68.9z M38.5,62.9
		c0,0.4-0.2,0.6-0.6,0.6c-0.4,0-0.6-0.2-0.6-0.6v-3c0-0.4,0.2-0.6,0.6-0.6c0.4,0,0.6,0.2,0.6,0.6V62.9z M38.5,56.9
		c0,0.4-0.2,0.6-0.6,0.6c-0.4,0-0.6-0.2-0.6-0.6v-3c0-0.4,0.2-0.6,0.6-0.6c0.4,0,0.6,0.2,0.6,0.6V56.9z M38.5,50.8
		c0,0.4-0.2,0.6-0.6,0.6c-0.4,0-0.6-0.2-0.6-0.6v-3c0-0.4,0.2-0.6,0.6-0.6c0.4,0,0.6,0.2,0.6,0.6V50.8z M38.5,44.8
		c0,0.4-0.2,0.6-0.6,0.6c-0.4,0-0.6-0.2-0.6-0.6v-3c0-0.4,0.2-0.6,0.6-0.6c0.4,0,0.6,0.2,0.6,0.6V44.8z M38.5,38.8
		c0,0.4-0.2,0.6-0.6,0.6c-0.4,0-0.6-0.2-0.6-0.6v-3c0-0.4,0.2-0.6,0.6-0.6c0.4,0,0.6,0.2,0.6,0.6V38.8z M52.7,78.2h3
		c0.4,0,0.6,0.2,0.6,0.6c0,0.4-0.2,0.6-0.6,0.6h-3c-0.4,0-0.6-0.2-0.6-0.6C52.1,78.5,52.5,78.2,52.7,78.2z M46.7,78.2h3
		c0.4,0,0.6,0.2,0.6,0.6c0,0.4-0.2,0.6-0.6,0.6h-3c-0.4,0-0.6-0.2-0.6-0.6C46.1,78.5,46.5,78.2,46.7,78.2z M40.7,78.2h3
		c0.4,0,0.6,0.2,0.6,0.6c0,0.4-0.2,0.6-0.6,0.6h-3c-0.4,0-0.6-0.2-0.6-0.6C40.1,78.5,40.4,78.2,40.7,78.2z"/>
	<path class="st0" d="M79.5,26.7v-3c0-0.4,0.2-0.6,0.6-0.6s0.6,0.2,0.6,0.6v3l0,0l9.2-1.3l-9.2-5.9v1.2c0,0.4-0.2,0.6-0.6,0.6
		s-0.6-0.2-0.6-0.6v-1.8h-41v1.8c0,0.4-0.2,0.6-0.6,0.6c-0.4,0-0.6-0.2-0.6-0.6v-1.2l-9.2,5.8l9.2,1.3l0,0v-3c0-0.4,0.2-0.6,0.6-0.6
		c0.4,0,0.6,0.2,0.6,0.6v3c0,0.1,0,0.1,0,0.1L59,30l20.6-3.1L79.5,26.7z"/>
	<path class="st0" d="M80.7,29.8v3c0,0.4-0.2,0.6-0.6,0.6s-0.6-0.2-0.6-0.6v-3c0-0.1,0.1-0.4,0.1-0.4l-19.4,2.9v46h1.6
		c0.4,0,0.6,0.2,0.6,0.6c0,0.4-0.2,0.6-0.6,0.6h-1.6v24.8L92,94.7V27.5l-11.6,1.8C80.6,29.3,80.7,29.5,80.7,29.8z M67.8,79.4h-3
		c-0.4,0-0.6-0.2-0.6-0.6c0-0.4,0.2-0.6,0.6-0.6h3c0.4,0,0.6,0.2,0.6,0.6C68.4,79.1,68.2,79.4,67.8,79.4z M73.8,79.4h-3
		c-0.4,0-0.6-0.2-0.6-0.6c0-0.4,0.2-0.6,0.6-0.6h3c0.4,0,0.6,0.2,0.6,0.6C74.4,79.1,74.2,79.4,73.8,79.4z M80.7,78.8
		c0,0.4-0.2,0.6-0.6,0.6H80h-0.1h-3c-0.4,0-0.6-0.2-0.6-0.6c0-0.4,0.2-0.6,0.6-0.6h2.7v-0.4c0-0.4,0.2-0.6,0.6-0.6s0.6,0.2,0.6,0.6
		V78.8z M80.7,74.9c0,0.4-0.2,0.6-0.6,0.6s-0.6-0.2-0.6-0.6v-3c0-0.4,0.2-0.6,0.6-0.6s0.6,0.2,0.6,0.6V74.9z M80.7,68.9
		c0,0.4-0.2,0.6-0.6,0.6s-0.6-0.2-0.6-0.6v-3c0-0.4,0.2-0.6,0.6-0.6s0.6,0.2,0.6,0.6V68.9z M80.7,62.9c0,0.4-0.2,0.6-0.6,0.6
		s-0.6-0.2-0.6-0.6v-3c0-0.4,0.2-0.6,0.6-0.6s0.6,0.2,0.6,0.6V62.9z M80.7,56.9c0,0.4-0.2,0.6-0.6,0.6s-0.6-0.2-0.6-0.6v-3
		c0-0.4,0.2-0.6,0.6-0.6s0.6,0.2,0.6,0.6V56.9z M80.7,50.8c0,0.4-0.2,0.6-0.6,0.6s-0.6-0.2-0.6-0.6v-3c0-0.4,0.2-0.6,0.6-0.6
		s0.6,0.2,0.6,0.6V50.8z M80.7,44.8c0,0.4-0.2,0.6-0.6,0.6s-0.6-0.2-0.6-0.6v-3c0-0.4,0.2-0.6,0.6-0.6s0.6,0.2,0.6,0.6V44.8z
		 M80.7,38.8c0,0.4-0.2,0.6-0.6,0.6s-0.6-0.2-0.6-0.6v-3c0-0.4,0.2-0.6,0.6-0.6s0.6,0.2,0.6,0.6V38.8z M88.9,90.1
		c0.2-0.2,0.6-0.1,0.8,0.1l1.8,2.4c0.1,0.1,0.1,0.2,0.1,0.4c0,0.2-0.1,0.4-0.2,0.5s-0.2,0.1-0.4,0.1c-0.2,0-0.4-0.1-0.5-0.2L88.8,91
		c-0.1-0.1-0.1-0.2-0.1-0.4C88.6,90.4,88.8,90.1,88.9,90.1z M85.1,85.3c0.2-0.2,0.6-0.1,0.8,0.1l1.8,2.4c0.1,0.1,0.1,0.2,0.1,0.4
		c0,0.1-0.1,0.4-0.2,0.5s-0.2,0.1-0.4,0.1c-0.2,0-0.4-0.1-0.5-0.2L85,86.1c-0.1-0.1-0.1-0.2-0.1-0.4C84.9,85.7,85,85.4,85.1,85.3z
		 M81.4,80.6c0.2-0.2,0.6-0.1,0.8,0.1l1.8,2.4c0.1,0.1,0.1,0.2,0.1,0.4c0,0.2-0.1,0.4-0.2,0.5c-0.1,0.1-0.2,0.1-0.4,0.1
		c-0.2,0-0.4-0.1-0.5-0.2l-1.8-2.4c-0.1-0.1-0.1-0.2-0.1-0.4C81.2,80.8,81.3,80.7,81.4,80.6z"/>
	<path d="M67.8,78.2h-3c-0.4,0-0.6,0.2-0.6,0.6c0,0.4,0.2,0.6,0.6,0.6h3c0.4,0,0.6-0.2,0.6-0.6C68.4,78.5,68.2,78.2,67.8,78.2z"/>
	<path d="M37.9,77.3c-0.4,0-0.6,0.2-0.6,0.6v0.7L35.5,81c-0.1,0.1-0.1,0.2-0.1,0.4c0,0.2,0.1,0.4,0.2,0.5s0.2,0.1,0.4,0.1
		c0.2,0,0.4-0.1,0.5-0.2l1.8-2.4l0,0c0.1-0.1,0.2-0.2,0.2-0.5v-1C38.5,77.6,38.2,77.3,37.9,77.3z"/>
	<path d="M29.8,88.1L28,90.5c-0.1,0.1-0.1,0.2-0.1,0.4c0,0.2,0.1,0.4,0.2,0.5s0.2,0.1,0.4,0.1c0.2,0,0.4-0.1,0.5-0.2l1.8-2.4
		c0.1-0.1,0.1-0.2,0.1-0.4c0-0.2-0.1-0.4-0.2-0.5C30.4,87.8,30.1,87.8,29.8,88.1z"/>
	<path d="M87,88.5c0.1,0.1,0.2,0.2,0.5,0.2c0.1,0,0.2,0,0.4-0.1c0.1-0.1,0.2-0.4,0.2-0.5s0-0.2-0.1-0.4l-1.8-2.4
		c-0.2-0.2-0.6-0.4-0.8-0.1c-0.1,0.1-0.2,0.4-0.2,0.5s0,0.2,0.1,0.4L87,88.5z"/>
	<path d="M90.6,93.2c0.1,0.1,0.2,0.2,0.5,0.2c0.1,0,0.2,0,0.4-0.1c0.1-0.1,0.2-0.4,0.2-0.5s0-0.2-0.1-0.4l-1.8-2.4
		c-0.2-0.2-0.6-0.4-0.8-0.1c-0.1,0.1-0.2,0.4-0.2,0.5c0,0.1,0,0.2,0.1,0.4L90.6,93.2z"/>
	<path d="M83.2,83.7c0.1,0.1,0.2,0.2,0.5,0.2c0.1,0,0.2,0,0.4-0.1c0.1-0.1,0.2-0.4,0.2-0.5s0-0.2-0.1-0.4l-1.8-2.4
		c-0.2-0.2-0.6-0.4-0.8-0.1c-0.1,0.1-0.2,0.2-0.2,0.5c0,0.1,0,0.2,0.1,0.4L83.2,83.7z"/>
	<path d="M73.8,78.2h-3c-0.4,0-0.6,0.2-0.6,0.6c0,0.4,0.2,0.6,0.6,0.6h3c0.4,0,0.6-0.2,0.6-0.6C74.4,78.5,74.2,78.2,73.8,78.2z"/>
	<path d="M46.7,79.4h3c0.4,0,0.6-0.2,0.6-0.6c0-0.4-0.2-0.6-0.6-0.6h-3c-0.4,0-0.6,0.2-0.6,0.6C46.1,79.1,46.5,79.4,46.7,79.4z"/>
	<path d="M52.7,79.4h3c0.4,0,0.6-0.2,0.6-0.6c0-0.4-0.2-0.6-0.6-0.6h-3c-0.4,0-0.6,0.2-0.6,0.6C52.1,79.1,52.5,79.4,52.7,79.4z"/>
	<path d="M40.7,79.4h3c0.4,0,0.6-0.2,0.6-0.6c0-0.4-0.2-0.6-0.6-0.6h-3c-0.4,0-0.6,0.2-0.6,0.6C40.1,79.1,40.4,79.4,40.7,79.4z"/>
	<path d="M33.6,83.4l-1.8,2.4c-0.1,0.1-0.1,0.2-0.1,0.4c0,0.2,0.1,0.4,0.2,0.5c0.1,0.1,0.2,0.1,0.4,0.1c0.2,0,0.4-0.1,0.5-0.2
		l1.8-2.4c0.1-0.1,0.1-0.2,0.1-0.4c0-0.1-0.1-0.4-0.2-0.5C34.2,83,33.8,83.1,33.6,83.4z"/>
	<path d="M94.4,26c0-0.1,0-0.2-0.1-0.4l0,0c0-0.1-0.1-0.2-0.2-0.4c0,0-0.1,0-0.1-0.1l-0.1-0.1l-13-8.3c-0.2-0.1-0.4-0.2-0.6-0.2
		H37.9c-0.2,0-0.5,0.1-0.6,0.2l-13,8.3l-0.1,0.1c0,0-0.1,0-0.1,0.1c-0.1,0.1-0.1,0.2-0.2,0.4l0,0c0,0.1-0.1,0.2-0.1,0.4l0,0v69.5
		c0,0,0,0,0,0.1c0,0.1,0,0.1,0,0.2s0,0.1,0.1,0.2c0,0.1,0.1,0.1,0.1,0.2c0,0.1,0.1,0.1,0.1,0.1l0.1,0.1c0.1,0,0.1,0.1,0.2,0.1l0,0
		l34.2,10.4c0.1,0,0.2,0,0.4,0s0.2,0,0.4,0l34.2-10.4l0,0c0.1,0,0.1-0.1,0.2-0.1s0.1-0.1,0.1-0.1l0.1-0.1c0-0.1,0.1-0.1,0.1-0.2
		c0-0.1,0-0.1,0.1-0.2c0-0.1,0-0.1,0-0.2c0,0,0,0,0-0.1L94.4,26L94.4,26z M57.8,104.3l-31.6-9.5l1-1.2c0.1-0.1,0.1-0.2,0.1-0.4
		c0-0.2-0.1-0.4-0.2-0.5c-0.2-0.2-0.6-0.1-0.8,0.1l-0.1,0.2V27.5l11.6,1.8c-0.2,0-0.4,0.2-0.4,0.5v3c0,0.4,0.2,0.6,0.6,0.6
		c0.4,0,0.6-0.2,0.6-0.6v-3c0-0.1-0.1-0.4-0.1-0.4l19.4,2.9V104.3z M59,30l-20.6-3.1v-0.1v-3c0-0.4-0.2-0.6-0.6-0.6
		s-0.6,0.2-0.6,0.6v3l0,0L28,25.4l9.2-5.8v1.2c0,0.4,0.2,0.6,0.6,0.6s0.6-0.2,0.6-0.6V19h41.1v1.8c0,0.4,0.2,0.6,0.6,0.6
		s0.6-0.2,0.6-0.6v-1.2l9.2,5.8l-9.2,1.3l0,0v-3c0-0.4-0.2-0.6-0.6-0.6s-0.6,0.2-0.6,0.6v3c0,0.1,0,0.1,0,0.1L59,30z M92,94.7
		l-31.8,9.6V79.4h1.6c0.4,0,0.6-0.2,0.6-0.6c0-0.4-0.2-0.6-0.6-0.6h-1.6V32.3l19.5-3c-0.1,0.1-0.1,0.2-0.1,0.4v3
		c0,0.4,0.2,0.6,0.6,0.6s0.6-0.2,0.6-0.6v-3c0-0.2-0.1-0.4-0.4-0.5L92,27.3C92,27.3,92,94.7,92,94.7z"/>
	<path d="M37.9,59.3c-0.4,0-0.6,0.2-0.6,0.6v3c0,0.4,0.2,0.6,0.6,0.6c0.4,0,0.6-0.2,0.6-0.6v-3C38.5,59.5,38.2,59.3,37.9,59.3z"/>
	<path d="M37.9,65.3c-0.4,0-0.6,0.2-0.6,0.6v3c0,0.4,0.2,0.6,0.6,0.6c0.4,0,0.6-0.2,0.6-0.6v-3C38.5,65.5,38.2,65.3,37.9,65.3z"/>
	<path d="M37.9,71.3c-0.4,0-0.6,0.2-0.6,0.6v3c0,0.4,0.2,0.6,0.6,0.6c0.4,0,0.6-0.2,0.6-0.6v-3C38.5,71.6,38.2,71.3,37.9,71.3z"/>
	<path d="M37.9,35.2c-0.4,0-0.6,0.2-0.6,0.6v3c0,0.4,0.2,0.6,0.6,0.6c0.4,0,0.6-0.2,0.6-0.6v-3C38.5,35.4,38.2,35.2,37.9,35.2z"/>
	<path d="M37.9,47.2c-0.4,0-0.6,0.2-0.6,0.6v3c0,0.4,0.2,0.6,0.6,0.6c0.4,0,0.6-0.2,0.6-0.6v-3C38.5,47.5,38.2,47.2,37.9,47.2z"/>
	<path d="M37.9,41.2c-0.4,0-0.6,0.2-0.6,0.6v3c0,0.4,0.2,0.6,0.6,0.6c0.4,0,0.6-0.2,0.6-0.6v-3C38.5,41.4,38.2,41.2,37.9,41.2z"/>
	<path d="M37.9,53.2c-0.4,0-0.6,0.2-0.6,0.6v3c0,0.4,0.2,0.6,0.6,0.6c0.4,0,0.6-0.2,0.6-0.6v-3C38.5,53.5,38.2,53.2,37.9,53.2z"/>
	<path d="M80.1,71.3c-0.4,0-0.6,0.2-0.6,0.6v3c0,0.4,0.2,0.6,0.6,0.6s0.6-0.2,0.6-0.6v-3C80.7,71.6,80.4,71.3,80.1,71.3z"/>
	<path d="M80.1,77.3c-0.4,0-0.6,0.2-0.6,0.6v0.4h-2.7c-0.4,0-0.6,0.2-0.6,0.6c0,0.4,0.2,0.6,0.6,0.6h3H80h0.1c0.4,0,0.6-0.2,0.6-0.6
		v-1C80.7,77.6,80.4,77.3,80.1,77.3z"/>
	<path d="M80.1,59.3c-0.4,0-0.6,0.2-0.6,0.6v3c0,0.4,0.2,0.6,0.6,0.6s0.6-0.2,0.6-0.6v-3C80.7,59.5,80.4,59.3,80.1,59.3z"/>
	<path d="M80.1,47.2c-0.4,0-0.6,0.2-0.6,0.6v3c0,0.4,0.2,0.6,0.6,0.6s0.6-0.2,0.6-0.6v-3C80.7,47.5,80.4,47.2,80.1,47.2z"/>
	<path d="M80.1,65.3c-0.4,0-0.6,0.2-0.6,0.6v3c0,0.4,0.2,0.6,0.6,0.6s0.6-0.2,0.6-0.6v-3C80.7,65.5,80.4,65.3,80.1,65.3z"/>
	<path d="M80.1,41.2c-0.4,0-0.6,0.2-0.6,0.6v3c0,0.4,0.2,0.6,0.6,0.6s0.6-0.2,0.6-0.6v-3C80.7,41.4,80.4,41.2,80.1,41.2z"/>
	<path d="M80.1,35.2c-0.4,0-0.6,0.2-0.6,0.6v3c0,0.4,0.2,0.6,0.6,0.6s0.6-0.2,0.6-0.6v-3C80.7,35.4,80.4,35.2,80.1,35.2z"/>
	<path d="M80.1,53.2c-0.4,0-0.6,0.2-0.6,0.6v3c0,0.4,0.2,0.6,0.6,0.6s0.6-0.2,0.6-0.6v-3C80.7,53.5,80.4,53.2,80.1,53.2z"/>
</g>
</svg>
